<?xml version="1.0" encoding="UTF-8" standalone="no" ?>
<!DOCTYPE svg PUBLIC "-//W3C//DTD SVG 1.1//EN" "http://www.w3.org/Graphics/SVG/1.1/DTD/svg11.dtd">
<svg xmlns="http://www.w3.org/2000/svg" xmlns:xlink="http://www.w3.org/1999/xlink" version="1.1" width="500" height="500" viewBox="0 0 500 500" xml:space="preserve">
<desc>Created with Fabric.js 4.6.0</desc>
<defs>
</defs>
<g transform="matrix(0.18 0 0 0.18 250 250)" id="MbzXsdZVtrliB1g2L32_k"  >
<g style="" vector-effect="non-scaling-stroke"   >
		<g transform="matrix(1 0 0 1 -609.75 0)" id="IkHuG0s5NtMbX9-zhIQvh"  >
<path style="stroke: none; stroke-width: 1; stroke-dasharray: none; stroke-linecap: butt; stroke-dashoffset: 0; stroke-linejoin: miter; stroke-miterlimit: 4; fill: rgb(130,204,44); fill-rule: nonzero; opacity: 1;" vector-effect="non-scaling-stroke"  transform=" translate(-93.85, -93.5)" d="M 0 93.2 C 0.1 43.7 39.8 0 93.9 0 C 148.3 0 187.8 44.3 187.7 93.8 C 187.5 143 148.2 187 93.79999999999998 187 C 39 186.9 -0.3 142.4 0 93.2 z M 18.8 125.2 C 18.6 125 18.400000000000002 124.8 18.2 124.5 C 18.1 125.1 18.1 125.5 18.8 125.2 C 18.1 126.5 19 127.60000000000001 19.6 128.8 C 28.3 146.8 42 159.9 60.1 168.4 C 60.800000000000004 168.70000000000002 61.6 169.20000000000002 62.300000000000004 168.1 C 55.7 159.2 51.7 149 48.2 138.79999999999998 C 42.800000000000004 137.2 37.900000000000006 135.29999999999998 33.1 133.1 C 28.1 130.9 23.7 127.7 18.8 125.2 z M 18.8 61.8 C 28.1 56.099999999999994 37.7 51.199999999999996 48.400000000000006 48.199999999999996 C 51.60000000000001 37.599999999999994 56.10000000000001 27.699999999999996 62.7 18.299999999999997 C 61.5 18.4 61 18.299999999999997 60.6 18.499999999999996 C 42 27 28.2 40.3 19.4 58.7 C 18.9 59.7 18.2 60.7 18.8 61.8 C 18.1 61.5 18.1 61.9 18.2 62.5 C 18.5 62.2 18.6 62 18.8 61.8 z M 125 168.6 C 126 169 126.9 168.6 127.8 168.2 C 146 159.7 159.5 146.39999999999998 168.2 128.39999999999998 C 168.7 127.39999999999998 169.39999999999998 126.39999999999998 168.7 125.19999999999997 C 169.39999999999998 125.59999999999998 169.5 125.19999999999997 169.29999999999998 124.69999999999997 C 169.1 124.89999999999998 168.89999999999998 125.09999999999998 168.7 125.29999999999997 C 159.39999999999998 130.89999999999998 149.79999999999998 135.89999999999998 139.2 138.89999999999998 C 136 149.6 131.3 159.5 125 168.6 C 125 168.79999999999998 125 168.9 124.9 169 C 125 168.9 125 168.8 125 168.6 z M 125 18.4 C 124.9 18.299999999999997 124.9 18.2 124.8 18.099999999999998 C 124.9 18.1 125 18.2 125 18.4 C 131.4 27.599999999999998 136 37.8 139.4 48.4 C 150.20000000000002 51.3 159.6 56.3 168.8 61.9 C 169 62.1 169.20000000000002 62.3 169.4 62.5 C 169.5 61.9 169.5 61.6 168.8 61.9 C 169.60000000000002 60.3 168.5 59.1 167.9 57.8 C 159.4 40.4 146.3 27.599999999999998 128.8 19.299999999999997 C 127.6 18.7 126.5 17.8 125 18.4 z M 129.6 57.6 C 105.69999999999999 52.2 81.8 52.1 57.89999999999999 57.7 C 52.19999999999999 81.7 52.19999999999999 105.30000000000001 57.89999999999999 129.4 C 81.89999999999999 134.9 105.79999999999998 134.9 129.6 129.4 C 135.5 105.9 135.5 81.2 129.6 57.6 z M 45 125.4 C 41.2 103.80000000000001 41.5 82.9 44.9 61.60000000000001 C 34.8 65.30000000000001 26.2 69.80000000000001 19.2 76.9 C 9 87.4 9 99.7 19.3 110.2 C 26.2 117.2 34.9 121.7 45 125.4 z M 142.7 125.3 C 149 123.2 154.29999999999998 120.6 159.29999999999998 117.39999999999999 C 164.29999999999998 114.19999999999999 168.89999999999998 110.49999999999999 172.2 105.39999999999999 C 176.89999999999998 98.1 177.5 90.6 173 83.1 C 166.2 71.8 155 66.5 142.5 61.39999999999999 C 146.4 83.2 146.2 104.1 142.7 125.3 z M 62.9 44.7 C 83.6 41 104.4 41.1 125.6 44.800000000000004 C 124.1 39.00000000000001 121.6 34.400000000000006 118.89999999999999 29.900000000000006 C 115.6 24.400000000000006 111.69999999999999 19.300000000000004 106.19999999999999 15.600000000000005 C 97.99999999999999 10.100000000000005 89.69999999999999 9.900000000000006 81.69999999999999 15.500000000000005 C 71.79999999999998 22.400000000000006 66.39999999999999 32.50000000000001 62.499999999999986 43.50000000000001 C 62.4 43.8 62.6 44.1 62.9 44.7 z M 125.9 142.1 C 104 145.9 83.30000000000001 146 62.400000000000006 142.2 C 62.800000000000004 146.5 64.80000000000001 149.7 66.5 153 C 70.3 160.4 74.9 167.2 82.1 171.8 C 89.19999999999999 176.4 96.69999999999999 177.10000000000002 104.1 172.70000000000002 C 115.5 165.9 120.9 154.7 125.9 142.1 z" stroke-linecap="round" />
</g>
		<g transform="matrix(1 0 0 1 -149.98 0.05)" id="szNmyATwLlBsUGo_hUnuZ"  >
<path style="stroke: none; stroke-width: 1; stroke-dasharray: none; stroke-linecap: butt; stroke-dashoffset: 0; stroke-linejoin: miter; stroke-miterlimit: 4; fill: rgb(2,2,2); fill-rule: nonzero; opacity: 1;" vector-effect="non-scaling-stroke"  transform=" translate(-553.63, -93.55)" d="M 519.7 64.8 C 519.7 91 519.7 117.19999999999999 519.7 143.8 C 514.8000000000001 143.8 509.90000000000003 143.8 505.1 143.8 C 504.5 139.20000000000002 504.5 48.60000000000001 505.1 43.30000000000001 C 510.8 43.30000000000001 516.5 43.30000000000001 522.5 43.30000000000001 C 543.9 69.70000000000002 565.5 96.30000000000001 587.7 123.70000000000002 C 587.7 96.30000000000001 587.7 70.00000000000001 587.7 43.30000000000001 C 592.8000000000001 43.30000000000001 597.6 43.30000000000001 602.6 43.30000000000001 C 602.6 76.80000000000001 602.6 110.20000000000002 602.6 143.8 C 596.8000000000001 143.8 591.1 143.8 585.1 143.8 C 563.7 117.4 542.1 90.80000000000001 520.6 64.20000000000002 C 520.3 64.4 520 64.6 519.7 64.8 z" stroke-linecap="round" />
</g>
		<g transform="matrix(1 0 0 1 -9.72 -0.16)" id="VuluKKLCw3cBHui2toE9l"  >
<path style="stroke: none; stroke-width: 1; stroke-dasharray: none; stroke-linecap: butt; stroke-dashoffset: 0; stroke-linejoin: miter; stroke-miterlimit: 4; fill: rgb(5,5,5); fill-rule: nonzero; opacity: 1;" vector-effect="non-scaling-stroke"  transform=" translate(-693.88, -93.34)" d="M 750.3 93.4 C 750.1999999999999 102.2 748.8 110.10000000000001 745.3 117.5 C 738.5999999999999 131.9 727.3 140.8 712 144.5 C 699.6 147.5 687.1 147.5 674.7 144.2 C 652.9000000000001 138.29999999999998 638.8000000000001 120.79999999999998 637.6 98.29999999999998 C 637.2 91.19999999999999 637.6 84.09999999999998 639.6 77.19999999999999 C 644.6 59.89999999999999 655.6 48.19999999999999 673 43.09999999999999 C 687.4 38.79999999999999 702.1 38.899999999999984 716.4 43.59999999999999 C 736.3 50.29999999999999 746.6999999999999 64.79999999999998 749.8 84.99999999999999 C 750.1999999999999 87.29999999999998 750.1999999999999 89.59999999999998 750.3 91.89999999999999 C 750.3 92.7 750.3 93.4 750.3 93.4 z M 735 93.4 C 735 91.9 735.1 90.4 735 89 C 734.1 72.6 724.1 59.9 708.4 55.4 C 701 53.3 693.4 53.1 685.8 54.1 C 669.6999999999999 56.1 657.8 66.5 654 81.7 C 652.7 86.8 652.3 92.10000000000001 652.7 97.4 C 653.8000000000001 109.80000000000001 658.2 120.7 669.4000000000001 127.10000000000001 C 685.4000000000001 136.20000000000002 702.0000000000001 136.4 718.0000000000001 127.4 C 730.9 120 735.1 107.6 735 93.4 z" stroke-linecap="round" />
</g>
		<g transform="matrix(1 0 0 1 -282 0)" id="HBh-BT38Oq-vq1IRF80dj"  >
<path style="stroke: none; stroke-width: 1; stroke-dasharray: none; stroke-linecap: butt; stroke-dashoffset: 0; stroke-linejoin: miter; stroke-miterlimit: 4; fill: rgb(4,4,4); fill-rule: nonzero; opacity: 1;" vector-effect="non-scaling-stroke"  transform=" translate(-421.6, -93.5)" d="M 413 43.1 C 418.9 43.1 424.5 43.1 430.4 43.1 C 445.59999999999997 76.6 460.79999999999995 110 476.09999999999997 143.9 C 470.09999999999997 143.9 464.7 143.9 458.9 143.9 C 454.7 134.3 450.4 124.60000000000001 446 114.80000000000001 C 429.4 114.80000000000001 413.1 114.80000000000001 396.2 114.80000000000001 C 392 124.30000000000001 387.7 134 383.3 143.9 C 378.1 143.9 373 143.9 367.1 143.9 C 382.7 110.1 397.9 76.6 413 43.1 z M 440.5 101.3 C 434.1 86.5 427.8 72.19999999999999 421.1 56.8 C 414.5 72.39999999999999 408.40000000000003 86.69999999999999 402.20000000000005 101.3 C 415.2 101.3 427.5 101.3 440.5 101.3 z" stroke-linecap="round" />
</g>
		<g transform="matrix(1 0 0 1 -389.1 -0.1)" id="iIlw3NBAumIVZC0VNcXwG"  >
<path style="stroke: none; stroke-width: 1; stroke-dasharray: none; stroke-linecap: butt; stroke-dashoffset: 0; stroke-linejoin: miter; stroke-miterlimit: 4; fill: rgb(2,2,2); fill-rule: nonzero; opacity: 1;" vector-effect="non-scaling-stroke"  transform=" translate(-314.5, -93.4)" d="M 286.4 143.8 C 281 143.8 276.29999999999995 143.8 271.4 143.8 C 271.4 110.20000000000002 271.4 76.80000000000001 271.4 43.60000000000001 C 272.09999999999997 42.900000000000006 272.79999999999995 43.00000000000001 273.5 43.00000000000001 C 291.4 43.00000000000001 309.3 43.00000000000001 327.1 43.10000000000001 C 330.40000000000003 43.10000000000001 333.70000000000005 43.70000000000001 336.90000000000003 44.50000000000001 C 354.6 49.00000000000001 359.50000000000006 63.00000000000001 357.00000000000006 78.5 C 354.6000000000001 93.7 343.80000000000007 103 328.30000000000007 103.5 C 316.1000000000001 103.9 303.80000000000007 103.6 291.6000000000001 103.7 C 290.00000000000006 103.7 288.30000000000007 103.3 286.50000000000006 104.3 C 286.4 117.1 286.4 130.3 286.4 143.8 z M 286.5 56 C 286.5 67.8 286.5 79.1 286.5 90.5 C 299.7 90.5 312.5 90.5 325.4 90.5 C 326.9 90.5 328.29999999999995 90.1 329.79999999999995 89.7 C 338.79999999999995 87.5 343.49999999999994 80.3 342.49999999999994 70.30000000000001 C 341.59999999999997 61.80000000000001 335.99999999999994 56.30000000000001 326.99999999999994 56.10000000000001 C 313.6 55.8 300.3 56 286.5 56 z" stroke-linecap="round" />
</g>
		<g transform="matrix(1 0 0 1 439.07 27.67)" id="vEeNBHZHdgChyxIcDvsKn"  >
<path style="stroke: none; stroke-width: 1; stroke-dasharray: none; stroke-linecap: butt; stroke-dashoffset: 0; stroke-linejoin: miter; stroke-miterlimit: 4; fill: rgb(7,7,7); fill-rule: nonzero; opacity: 1;" vector-effect="non-scaling-stroke"  transform=" translate(-1142.67, -121.17)" d="M 1173.9 82.2 C 1173.9 78 1173.9 73.8 1173.9 69.3 C 1177.5 68.8 1180.7 69 1183.8000000000002 69.1 C 1185.2000000000003 70.3 1184.7000000000003 71.69999999999999 1184.7000000000003 73 C 1184.7000000000003 95.3 1184.7000000000003 117.5 1184.7000000000003 139.8 C 1184.7000000000003 144.60000000000002 1184.2000000000003 149.4 1182.6000000000004 153.9 C 1178.8000000000004 164.6 1170.6000000000004 170.6 1160.0000000000005 173.4 C 1147.9000000000005 176.6 1135.7000000000005 176.5 1123.7000000000005 173.3 C 1114.2000000000005 170.8 1107.1000000000006 165.4 1104.7000000000005 155.20000000000002 C 1104.4000000000005 154.10000000000002 1104.2000000000005 152.9 1104.6000000000006 151.50000000000003 C 1107.5000000000007 150.80000000000004 1110.6000000000006 151.10000000000002 1113.4000000000005 151.30000000000004 C 1114.5000000000005 152.20000000000005 1114.3000000000006 153.30000000000004 1114.6000000000006 154.20000000000005 C 1116.1000000000006 160.20000000000005 1120.1000000000006 163.90000000000003 1126.0000000000007 165.40000000000003 C 1135.7000000000007 167.90000000000003 1145.6000000000006 168.50000000000003 1155.4000000000008 165.70000000000005 C 1166.3000000000009 162.70000000000005 1172.7000000000007 155.40000000000003 1173.7000000000007 144.30000000000004 C 1174.2000000000007 139.00000000000003 1173.8000000000006 133.50000000000003 1173.8000000000006 128.30000000000004 C 1173.3000000000006 128.00000000000003 1173.0000000000007 128.10000000000005 1172.8000000000006 128.40000000000003 C 1163.3000000000006 142.00000000000003 1149.6000000000006 144.70000000000005 1134.3000000000006 143.40000000000003 C 1131.2000000000007 143.10000000000002 1128.1000000000006 142.40000000000003 1125.1000000000006 141.40000000000003 C 1110.3000000000006 136.60000000000002 1102.1000000000006 125.30000000000004 1100.7000000000005 108.20000000000003 C 1098.9000000000005 85.00000000000003 1114.2000000000005 68.00000000000003 1137.9000000000005 66.70000000000003 C 1142.9000000000005 66.40000000000003 1147.9000000000005 66.70000000000003 1152.7000000000005 67.80000000000003 C 1161.3 70 1168.6 74.1 1173.9 82.2 z M 1174.1 105.4 C 1174.3 91.30000000000001 1166.1999999999998 80.5 1152.6999999999998 77 C 1145.8999999999999 75.2 1138.8999999999999 75.1 1132.1 76.9 C 1122.3 79.5 1115.3999999999999 85.4 1112.6 95.30000000000001 C 1110.5 102.60000000000001 1110.8 110.00000000000001 1113.1999999999998 117.20000000000002 C 1115.6 124.40000000000002 1120.2999999999997 129.3 1127.2999999999997 132.20000000000002 C 1133.3999999999996 134.70000000000002 1139.7999999999997 135.4 1146.2999999999997 134.9 C 1163.2 133.5 1173.9 122.1 1174.1 105.4 z" stroke-linecap="round" />
</g>
		<g transform="matrix(1 0 0 1 188.7 11.97)" id="y7tcU9JcYrFxkZOaTz1mv"  >
<path style="stroke: none; stroke-width: 1; stroke-dasharray: none; stroke-linecap: butt; stroke-dashoffset: 0; stroke-linejoin: miter; stroke-miterlimit: 4; fill: rgb(8,8,8); fill-rule: nonzero; opacity: 1;" vector-effect="non-scaling-stroke"  transform=" translate(-892.3, -105.47)" d="M 828.5 69.3 C 832 69.3 835.2 69.3 838.8 69.3 C 838.8 73.39999999999999 838.8 77.39999999999999 838.8 81.3 C 839.0999999999999 81.6 839.3 81.8 839.5999999999999 82.1 C 846.1999999999999 71.5 855.8999999999999 67 867.8 66.89999999999999 C 879.8 66.8 890 70.1 895.5 81.99999999999999 C 896.2 82.19999999999999 896.6 81.69999999999999 897 81.19999999999999 C 905.6 69.49999999999999 917.4 65.69999999999999 931.4 67.19999999999999 C 934.3 67.49999999999999 937.3 68.1 940.1 69.19999999999999 C 949 72.6 954.5 78.79999999999998 955.7 88.39999999999999 C 955.8000000000001 89.49999999999999 956.1 90.69999999999999 956.1 91.8 C 956.1 108.9 956.1 126.1 956.1 143.5 C 952.7 144.5 949.3000000000001 143.8 946 144 C 945 142.4 945.4 140.9 945.4 139.4 C 945.4 125.5 945.4 111.7 945.4 97.80000000000001 C 945.4 82.50000000000001 938.5 75.80000000000001 923.3 75.70000000000002 C 920.3 75.70000000000002 917.3 76.10000000000002 914.5 76.80000000000001 C 904.7 79.10000000000001 898.1 86.70000000000002 897.9 97.00000000000001 C 897.5 110.70000000000002 897.6999999999999 124.4 897.6999999999999 138.10000000000002 C 897.6999999999999 139.90000000000003 897.6999999999999 141.70000000000002 897.6999999999999 143.8 C 894.0999999999999 143.8 890.9 143.8 887.4 143.8 C 886.4 142.9 886.9 141.5 886.9 140.3 C 886.9 125.60000000000001 886.6 110.9 887 96.30000000000001 C 887.3 83.4 879.8 76.80000000000001 867.3 75.9 C 863.5999999999999 75.7 860 76.10000000000001 856.5 77.10000000000001 C 846.4 79.80000000000001 839.7 87.9 839.3 98.70000000000002 C 838.9 111.90000000000002 839.0999999999999 125.10000000000002 839.0999999999999 138.3 C 839.0999999999999 140.10000000000002 839.0999999999999 141.9 839.0999999999999 143.9 C 835.4999999999999 143.9 832.1999999999999 143.9 828.6999999999999 143.9 C 828.5 119.1 828.5 94.4 828.5 69.3 z" stroke-linecap="round" />
</g>
		<g transform="matrix(1 0 0 1 327.46 13.19)" id="-V5mwS6hhrD-zew0a6qGp"  >
<path style="stroke: none; stroke-width: 1; stroke-dasharray: none; stroke-linecap: butt; stroke-dashoffset: 0; stroke-linejoin: miter; stroke-miterlimit: 4; fill: rgb(7,7,7); fill-rule: nonzero; opacity: 1;" vector-effect="non-scaling-stroke"  transform=" translate(-1031.06, -106.69)" d="M 1064.6 135.7 C 1067.8 136.89999999999998 1070.5 135.79999999999998 1073.3999999999999 136.5 C 1073.6999999999998 138.7 1073.6999999999998 140.9 1073.3999999999999 143.1 C 1060.4999999999998 147 1055.8 144.5 1052.6 132.4 C 1039.1 147.4 1021.9999999999999 148.8 1003.9999999999999 143.9 C 991.8999999999999 140.6 986.5999999999999 130.6 989.0999999999999 118.60000000000001 C 990.3999999999999 112.30000000000001 994.3 108.10000000000001 999.9999999999999 105.4 C 1007.2999999999998 101.9 1015.1999999999999 101.10000000000001 1023.0999999999999 100.60000000000001 C 1029.8999999999999 100.2 1036.6999999999998 99.9 1043.3 98.7 C 1046.8 98 1050.7 97.8 1051.8 93.2 C 1053 87.7 1051.1 82.4 1047 79.60000000000001 C 1044.9 78.2 1042.6 77.30000000000001 1040.1 76.9 C 1033.1 75.7 1026 75.5 1018.8999999999999 76.4 C 1009.3999999999999 77.60000000000001 1002.4999999999999 81.4 1001.5999999999999 92.10000000000001 C 998.3999999999999 92.10000000000001 995.4999999999999 92.10000000000001 991.9999999999999 92.10000000000001 C 992.5999999999999 83.4 995.7999999999998 76.50000000000001 1003.2999999999998 72 C 1007.7999999999998 69.3 1012.6999999999998 68.2 1017.8999999999999 67.6 C 1027.1999999999998 66.5 1036.3999999999999 66.69999999999999 1045.4999999999998 69 C 1056.8999999999999 71.9 1061.7999999999997 78.1 1061.8999999999999 89.9 C 1061.9999999999998 102.30000000000001 1061.8999999999999 114.60000000000001 1061.8999999999999 127 C 1062 130 1061.7 133.4 1064.6 135.7 z M 1052 104.3 C 1048.8 104.89999999999999 1046.3 106.1 1043.5 106.5 C 1035.2 107.8 1026.8 108.4 1018.4 109.3 C 1013.8 109.8 1009.3 110.5 1005.1 112.8 C 1001.1 115 999.2 118.39999999999999 999.1 122.8 C 998.9 129.1 1002 134.1 1008.2 136 C 1021.1 140.1 1033.3 138.5 1044.3 130.5 C 1048 127.8 1050.6 124.1 1051.5 119.6 C 1052.6 114.7 1052.1 109.6 1052 104.3 z" stroke-linecap="round" />
</g>
		<g transform="matrix(1 0 0 1 555.02 12.93)" id="pqDTbr7f42MUP5IquQg7n"  >
<path style="stroke: none; stroke-width: 1; stroke-dasharray: none; stroke-linecap: butt; stroke-dashoffset: 0; stroke-linejoin: miter; stroke-miterlimit: 4; fill: rgb(6,6,6); fill-rule: nonzero; opacity: 1;" vector-effect="non-scaling-stroke"  transform=" translate(-1258.62, -106.43)" d="M 1299.6 109.3 C 1275.8 109.3 1251.8999999999999 109.3 1228 109.3 C 1228.2 124.2 1237.8 135.1 1252.3 136.9 C 1258.6 137.70000000000002 1264.8999999999999 137.5 1271 135.9 C 1279.3 133.8 1284.9 128.6 1287.6 120.30000000000001 C 1291 120.30000000000001 1294.3 120.30000000000001 1297.6 120.30000000000001 C 1298.3 121.10000000000001 1297.8 121.80000000000001 1297.5 122.50000000000001 C 1291.6 137 1280.3 144.10000000000002 1265.2 145.8 C 1259.1000000000001 146.5 1253 146.4 1246.9 145.10000000000002 C 1230.8000000000002 141.70000000000002 1219.7 130.00000000000003 1217.6000000000001 113.70000000000002 C 1216.7 106.90000000000002 1216.9 100.20000000000002 1218.8000000000002 93.60000000000002 C 1223.3000000000002 77.90000000000002 1236.1000000000001 68.10000000000002 1253.6000000000001 66.80000000000003 C 1259.2 66.40000000000002 1264.9 66.70000000000003 1270.4 67.90000000000002 C 1288.2 71.80000000000003 1299 84.80000000000001 1299.9 103.30000000000001 C 1300.1 105.2 1300.5 107.1 1299.6 109.3 z M 1228.4 100.8 C 1248.6000000000001 100.8 1268.8000000000002 100.8 1289 100.8 C 1287.7 85.39999999999999 1274.8 75.19999999999999 1257.5 75.69999999999999 C 1241.3 76.2 1228.8 86.8 1228.4 100.8 z" stroke-linecap="round" />
</g>
		<g transform="matrix(1 0 0 1 666.58 12.08)" id="jjPLjYMwqcuCIgc5mmH6T"  >
<path style="stroke: none; stroke-width: 1; stroke-dasharray: none; stroke-linecap: butt; stroke-dashoffset: 0; stroke-linejoin: miter; stroke-miterlimit: 4; fill: rgb(7,7,7); fill-rule: nonzero; opacity: 1;" vector-effect="non-scaling-stroke"  transform=" translate(-1370.18, -105.58)" d="M 1407 143.8 C 1403.6 143.8 1400.3 143.8 1397.1 143.8 C 1396 142.5 1396.5 140.9 1396.5 139.5 C 1396.5 125.7 1396.5 111.8 1396.5 98 C 1396.5 96 1396.5 94 1396.3 92.1 C 1395.5 84.3 1391 78.8 1383.5 77 C 1375.3 75 1367.1 75.4 1359.1 78.3 C 1348.8999999999999 82.1 1344.1 89.89999999999999 1343.8 100.4 C 1343.3999999999999 112.9 1343.6 125.5 1343.6 138 C 1343.6 139.8 1343.6 141.6 1343.6 143.7 C 1340.1 144.5 1336.6999999999998 144 1333.1 144.2 C 1333.1 119.19999999999999 1333.1 94.49999999999999 1333.1 69.69999999999999 C 1336.3 68.79999999999998 1339.6 69.6 1343 69.19999999999999 C 1344.3 73.69999999999999 1343.1 78.1 1343.9 82.79999999999998 C 1355 67.39999999999998 1370.1000000000001 64.89999999999998 1386.8000000000002 68.29999999999998 C 1398.9 70.69999999999999 1406.1000000000001 78.49999999999999 1406.8000000000002 91.99999999999999 C 1407.7 109 1407 126.3 1407 143.8 z" stroke-linecap="round" />
</g>
		<g transform="matrix(1 0 0 1 86.55 12.96)" id="c-Hytut1U5RDFCnXRda8k"  >
<path style="stroke: none; stroke-width: 1; stroke-dasharray: none; stroke-linecap: butt; stroke-dashoffset: 0; stroke-linejoin: miter; stroke-miterlimit: 4; fill: rgb(10,10,10); fill-rule: nonzero; opacity: 1;" vector-effect="non-scaling-stroke"  transform=" translate(-790.15, -106.46)" d="M 785.1 143.8 C 785.1 118.9 785.1 94.30000000000001 785.1 69.4 C 788.4 68.60000000000001 791.6 69.30000000000001 795.2 68.9 C 795.2 93.9 795.2 118.60000000000001 795.2 143.7 C 792 144.2 788.7 144 785.1 143.8 z" stroke-linecap="round" />
</g>
		<g transform="matrix(1 0 0 1 86.6 -45.13)" id="7WyhQS_ElI5yyzuDUVOiA"  >
<path style="stroke: none; stroke-width: 1; stroke-dasharray: none; stroke-linecap: butt; stroke-dashoffset: 0; stroke-linejoin: miter; stroke-miterlimit: 4; fill: rgb(13,13,13); fill-rule: nonzero; opacity: 1;" vector-effect="non-scaling-stroke"  transform=" translate(-790.2, -48.37)" d="M 785.1 40.5 C 788.6 40.5 791.8000000000001 40.5 795.3000000000001 40.5 C 795.3000000000001 45.6 795.3000000000001 50.6 795.3000000000001 55.9 C 792.0000000000001 56.4 788.6 56.3 785.1 55.9 C 785.1 50.7 785.1 45.7 785.1 40.5 z" stroke-linecap="round" />
</g>
</g>
</g>
</svg>